# xmcd
#
# Track frame offsets: 
#        150
#        14328
#        28344
#        53630
#        74077
#        89492
#        108674
#        136057
#        164931
#        181250
#        202353
#        228471
#        235537
#        250193
#        258736
#        273554
#        284401
#        298200
#        314035
#        322772
#
# Disc length: 4601 seconds
#
# Revision: 0
# Processed by: cddbd v1.5.2PL0 Copyright (c) Steve Scherf et al.
# Submitted via: ExactAudioCopy v0.99pb4
#
DISCID=4311f714
DTITLE=Various Artist - ΤΣΑΜΠΟΥΝΕΣ ΤΟΥ ΑΙΓΑΙΟΥ ΣΥΝΑΝΤΗΣΗ ΠΡΩΤΗ
DYEAR=2007
DGENRE=Folklore
TTITLE0=Μπάλος με δίστιχα
TTITLE1=Εγώ μαι νους ψαρά παιδί
TTITLE2=Σκοπός η "Κώτικο"-ίσσος χορός, δίστιχα
TTITLE3=Σκοπός 'Μαρούλι ' -καθιστικό ,δίστιχα
TTITLE4=Ίσσος χορός και σούστα-οργανικά
TTITLE5=Τρεις καλογέροι Κρητικοί-καθιστικό τραγούδι
TTITLE6=Κόρη δανείζει το φιλί
TTITLE7=Καράβι κιντυνεύγει
TTITLE8=Στα μάρμαρα του Γαλατά
TTITLE9=Πάνω χορός
TTITLE10=Κοντυλιές τση νύχτας 
TTITLE11=Κοντυλιές Ανατολικής Κρήτης
TTITLE12=Αγκαλιαστός χορός Αν. Κρήτης
TTITLE13=Πρινιανός χορός Αν. Κρήτης
TTITLE14=Παλιός Γεργιανός πηδηχτός
TTITLE15=Πεντοζάλι
TTITLE16=Παλιός σκοπός του Ερωτόκριτου Αν.Κρήτης
TTITLE17=Τραγούδι τση τάβλας Δυτικής Κρήτης
TTITLE18=Συρτός με σφυροχάμπιολο
TTITLE19=Συρτά με Ασκομαντούρα
EXTD=
EXTT0=
EXTT1=
EXTT2=
EXTT3=
EXTT4=
EXTT5=
EXTT6=
EXTT7=
EXTT8=
EXTT9=
EXTT10=
EXTT11=
EXTT12=
EXTT13=
EXTT14=
EXTT15=
EXTT16=
EXTT17=
EXTT18=
EXTT19=
PLAYORDER=
